<?xml version="1.0" encoding="utf-8"?>
<svg version="1.1" xmlns:xlink="http://www.w3.org/1999/xlink" width="250px" height="250px" xmlns="http://www.w3.org/2000/svg">
  <g transform="matrix(1 0 0 1 -585 -288 )">
    <path d="M 46 181  L 69 181  L 69 204  L 46 204  L 46 181  Z M 46 46  L 69 46  L 69 69  L 46 69  L 46 46  Z M 181 46  L 204 46  L 204 69  L 181 69  L 181 46  Z M 23 159  L 23 227  L 91 227  L 91 159  L 23 159  Z M 23 23  L 23 91  L 91 91  L 91 23  L 23 23  Z M 159 23  L 159 91  L 227 91  L 227 23  L 159 23  Z M 0 136  L 114 136  L 114 250  L 0 250  L 0 136  Z M 181 227  L 204 227  L 204 250  L 181 250  L 181 227  Z M 227 227  L 250 227  L 250 250  L 227 250  L 227 227  Z M 227 136  L 250 136  L 250 204  L 181 204  L 181 181  L 159 181  L 159 250  L 136 250  L 136 136  L 204 136  L 204 159  L 227 159  L 227 136  Z M 0 0  L 114 0  L 114 114  L 0 114  L 0 0  Z M 136 0  L 250 0  L 250 114  L 136 114  L 136 0  Z " fill-rule="nonzero" fill="#000000" stroke="none" transform="matrix(1 0 0 1 585 288 )" />
  </g>
</svg>