<?xml version="1.0" encoding="utf-8"?>
<svg version="1.1" xmlns:xlink="http://www.w3.org/1999/xlink" width="12px" height="12px" viewBox="0 3  12 12" xmlns="http://www.w3.org/2000/svg">
  <path d="M 6 3  C 9.36 3  12 5.64  12 9  C 12 12.36  9.36 15  6 15  C 2.64 15  0 12.36  0 9  C 0 5.64  2.64 3  6 3  Z " fill-rule="nonzero" fill="#ffffff" stroke="none" />
  <path d="M 6 3.5  C 9.08 3.5  11.5 5.92  11.5 9  C 11.5 12.08  9.08 14.5  6 14.5  C 2.92 14.5  0.5 12.08  0.5 9  C 0.5 5.92  2.92 3.5  6 3.5  Z " stroke-width="1" stroke="#797979" fill="none" />
  <path d="M 6 12  C 4.32 12  3 10.68  3 9  C 3 7.32  4.32 6  6 6  C 7.68 6  9 7.32  9 9  C 9 10.68  7.68 12  6 12  " fill-rule="nonzero" fill="#797979" stroke="none" />
</svg>