<?xml version="1.0" encoding="utf-8"?>
<svg version="1.1" xmlns:xlink="http://www.w3.org/1999/xlink" width="12px" height="12px" viewBox="162 3  12 12" xmlns="http://www.w3.org/2000/svg">
  <path d="M 168 3  C 171.36 3  174 5.64  174 9  C 174 12.36  171.36 15  168 15  C 164.64 15  162 12.36  162 9  C 162 5.64  164.64 3  168 3  Z " fill-rule="nonzero" fill="#ffffff" stroke="none" />
  <path d="M 168 3.5  C 171.08 3.5  173.5 5.92  173.5 9  C 173.5 12.08  171.08 14.5  168 14.5  C 164.92 14.5  162.5 12.08  162.5 9  C 162.5 5.92  164.92 3.5  168 3.5  Z " stroke-width="1" stroke="#797979" fill="none" />
  <path d="M 168 12  C 166.32 12  165 10.68  165 9  C 165 7.32  166.32 6  168 6  C 169.68 6  171 7.32  171 9  C 171 10.68  169.68 12  168 12  " fill-rule="nonzero" fill="#797979" stroke="none" />
</svg>