<?xml version="1.0" encoding="utf-8"?>
<svg version="1.1" xmlns:xlink="http://www.w3.org/1999/xlink" width="12px" height="12px" viewBox="360 358  12 12" xmlns="http://www.w3.org/2000/svg">
  <path d="M 360.5 360  A 1.5 1.5 0 0 1 362 358.5 L 370 358.5  A 1.5 1.5 0 0 1 371.5 360 L 371.5 368  A 1.5 1.5 0 0 1 370 369.5 L 362 369.5  A 1.5 1.5 0 0 1 360.5 368 L 360.5 360  Z " fill-rule="nonzero" fill="#f0f0f0" stroke="none" />
  <path d="M 360.5 360  A 1.5 1.5 0 0 1 362 358.5 L 370 358.5  A 1.5 1.5 0 0 1 371.5 360 L 371.5 368  A 1.5 1.5 0 0 1 370 369.5 L 362 369.5  A 1.5 1.5 0 0 1 360.5 368 L 360.5 360  Z " stroke-width="1" stroke="#d7d7d7" fill="none" />
</svg>