<?xml version="1.0" encoding="utf-8"?>
<svg version="1.1" xmlns:xlink="http://www.w3.org/1999/xlink" width="12px" height="12px" viewBox="360 417  12 12" xmlns="http://www.w3.org/2000/svg">
  <path d="M 360.5 419  A 1.5 1.5 0 0 1 362 417.5 L 370 417.5  A 1.5 1.5 0 0 1 371.5 419 L 371.5 427  A 1.5 1.5 0 0 1 370 428.5 L 362 428.5  A 1.5 1.5 0 0 1 360.5 427 L 360.5 419  Z " fill-rule="nonzero" fill="#ffffff" stroke="none" />
  <path d="M 360.5 419  A 1.5 1.5 0 0 1 362 417.5 L 370 417.5  A 1.5 1.5 0 0 1 371.5 419 L 371.5 427  A 1.5 1.5 0 0 1 370 428.5 L 362 428.5  A 1.5 1.5 0 0 1 360.5 427 L 360.5 419  Z " stroke-width="1" stroke="#d7d7d7" fill="none" />
</svg>