<?xml version="1.0" encoding="utf-8"?>
<svg version="1.1" xmlns:xlink="http://www.w3.org/1999/xlink" width="12px" height="12px" viewBox="360 636  12 12" xmlns="http://www.w3.org/2000/svg">
  <path d="M 360.5 638  A 1.5 1.5 0 0 1 362 636.5 L 370 636.5  A 1.5 1.5 0 0 1 371.5 638 L 371.5 646  A 1.5 1.5 0 0 1 370 647.5 L 362 647.5  A 1.5 1.5 0 0 1 360.5 646 L 360.5 638  Z " fill-rule="nonzero" fill="#ffffff" stroke="none" />
  <path d="M 360.5 638  A 1.5 1.5 0 0 1 362 636.5 L 370 636.5  A 1.5 1.5 0 0 1 371.5 638 L 371.5 646  A 1.5 1.5 0 0 1 370 647.5 L 362 647.5  A 1.5 1.5 0 0 1 360.5 646 L 360.5 638  Z " stroke-width="1" stroke="#d7d7d7" fill="none" />
</svg>