<?xml version="1.0" encoding="utf-8"?>
<svg version="1.1" xmlns:xlink="http://www.w3.org/1999/xlink" width="12px" height="12px" viewBox="360 800  12 12" xmlns="http://www.w3.org/2000/svg">
  <path d="M 360.5 802  A 1.5 1.5 0 0 1 362 800.5 L 370 800.5  A 1.5 1.5 0 0 1 371.5 802 L 371.5 810  A 1.5 1.5 0 0 1 370 811.5 L 362 811.5  A 1.5 1.5 0 0 1 360.5 810 L 360.5 802  Z " fill-rule="nonzero" fill="#ffffff" stroke="none" />
  <path d="M 360.5 802  A 1.5 1.5 0 0 1 362 800.5 L 370 800.5  A 1.5 1.5 0 0 1 371.5 802 L 371.5 810  A 1.5 1.5 0 0 1 370 811.5 L 362 811.5  A 1.5 1.5 0 0 1 360.5 810 L 360.5 802  Z " stroke-width="1" stroke="#d7d7d7" fill="none" />
  <path d="M 362.571428571429 806  L 365.142857142857 808.571428571429  " stroke-width="2.57142857142857" stroke="#d7d7d7" fill="none" />
  <path d="M 365.142857142857 808.571428571429  L 369.428571428571 802.571428571429  " stroke-width="2.57142857142857" stroke="#d7d7d7" fill="none" />
</svg>