<?xml version="1.0" encoding="utf-8"?>
<svg version="1.1" xmlns:xlink="http://www.w3.org/1999/xlink" width="51px" height="81px" xmlns="http://www.w3.org/2000/svg">
  <g transform="matrix(1 0 0 1 -43 -155 )">
    <path d="M 68 155.5  C 73.32 155.5  77.5 159.68  77.5 165  C 77.5 170.32  73.32 174.5  68 174.5  C 62.68 174.5  58.5 170.32  58.5 165  C 58.5 159.68  62.68 155.5  68 155.5  Z " fill-rule="nonzero" fill="#ffffff" stroke="none" />
    <path d="M 68 155.5  C 73.32 155.5  77.5 159.68  77.5 165  C 77.5 170.32  73.32 174.5  68 174.5  C 62.68 174.5  58.5 170.32  58.5 165  C 58.5 159.68  62.68 155.5  68 155.5  Z " stroke-width="1" stroke="#797979" fill="none" />
    <path d="M 43 185  L 93 185  M 68 175  L 68 210  M 48 235  L 68 210  M 68 210  L 88 235  " stroke-width="1" stroke="#797979" fill="none" />
  </g>
</svg>