<?xml version="1.0" encoding="utf-8"?>
<svg version="1.1" xmlns:xlink="http://www.w3.org/1999/xlink" width="32px" height="32px" xmlns="http://www.w3.org/2000/svg">
  <g transform="matrix(1 0 0 1 -434 -713 )">
    <path d="M 450 713  C 458.96 713  466 720.04  466 729  C 466 737.96  458.96 745  450 745  C 441.04 745  434 737.96  434 729  C 434 720.04  441.04 713  450 713  Z " fill-rule="nonzero" fill="#ffffff" stroke="none" />
    <path d="M 450 713.5  C 458.68 713.5  465.5 720.32  465.5 729  C 465.5 737.68  458.68 744.5  450 744.5  C 441.32 744.5  434.5 737.68  434.5 729  C 434.5 720.32  441.32 713.5  450 713.5  Z " stroke-width="1" stroke="#d7d7d7" fill="none" />
  </g>
</svg>